<svg xmlns="http://www.w3.org/2000/svg" version="1.1" xmlns:xlink="http://www.w3.org/1999/xlink" xmlns:svgjs="http://svgjs.dev/svgjs" width="1000" height="1000" viewBox="0 0 1000 1000"><g transform="matrix(1,0,0,1,-0.14221556886212738,-0.14221556886229791)"><svg viewBox="0 0 334 334" data-background-color="#ffffff" preserveAspectRatio="xMidYMid meet" height="1000" width="1000" xmlns="http://www.w3.org/2000/svg" xmlns:xlink="http://www.w3.org/1999/xlink"><g id="tight-bounds" transform="matrix(1,0,0,1,0.04749999999998522,0.04750000000001364)"><svg viewBox="0 0 333.90454557049503 333.90454557049503" height="333.90454557049503" width="333.90454557049503"><g><svg></svg></g><g><svg viewBox="0 0 333.90454557049503 333.90454557049503" height="333.90454557049503" width="333.90454557049503"><g><path d="M0 166.952c0-92.205 74.747-166.952 166.952-166.952 92.205 0 166.952 74.747 166.953 166.952 0 92.205-74.747 166.952-166.953 166.953-92.205 0-166.952-74.747-166.952-166.953zM166.952 316.63c82.665 0 149.677-67.013 149.678-149.678 0-82.665-67.013-149.677-149.678-149.677-82.665 0-149.677 67.013-149.677 149.677 0 82.665 67.013 149.677 149.677 149.678z" data-fill-palette-color="tertiary" fill="#bb84e8" stroke="transparent"></path><ellipse rx="160.27418187383762" ry="160.27418187383762" cx="166.95227278524752" cy="166.95227278524752" fill="#bb84e8" stroke="transparent" stroke-width="0" fill-opacity="1" data-fill-palette-color="tertiary"></ellipse></g><g transform="matrix(1,0,0,1,105.47942755507799,71.17305217166896)"><svg viewBox="0 0 122.94569046033904 191.55844122715712" height="191.55844122715712" width="122.94569046033904"><g><svg viewBox="0 0 122.94569046033904 191.55844122715712" height="191.55844122715712" width="122.94569046033904"><g><svg viewBox="0 0 122.94569046033904 191.55844122715712" height="191.55844122715712" width="122.94569046033904"><g><svg viewBox="0 0 122.94569046033904 191.55844122715712" height="191.55844122715712" width="122.94569046033904"><g id="textblocktransform"><svg viewBox="0 0 122.94569046033904 191.55844122715712" height="191.55844122715712" width="122.94569046033904" id="textblock"><g><svg viewBox="0 0 122.94569046033904 191.55844122715712" height="191.55844122715712" width="122.94569046033904"><g transform="matrix(1,0,0,1,0,0)"><svg width="122.94569046033904" viewBox="1.65 -26.9 17.650000000000002 27.5" height="191.55844122715712" data-palette-color="#ffffff"><path d="M10.45 0.6Q6.15 0.6 3.9-1.65 1.65-3.9 1.65-7.3L1.65-7.3Q1.65-7.85 1.68-8.03 1.7-8.2 1.7-8.25L1.7-8.25 6.55-8.25 6.55-7.8Q6.6-5.55 7.73-4.48 8.85-3.4 10.65-3.4L10.65-3.4Q12.25-3.4 13.35-4.33 14.45-5.25 14.45-7L14.45-7Q14.45-8.3 13.78-9.13 13.1-9.95 12.1-10.43 11.1-10.9 9.35-11.5L9.35-11.5Q7.05-12.25 5.63-12.98 4.2-13.7 3.2-15.23 2.2-16.75 2.2-19.25L2.2-19.25Q2.2-22.85 4.55-24.88 6.9-26.9 10.75-26.9L10.75-26.9Q14.4-26.9 16.57-24.88 18.75-22.85 18.75-19.7L18.75-19.7 18.7-18.7 13.85-18.7 13.85-19.05Q13.85-20.75 13.03-21.83 12.2-22.9 10.45-22.9L10.45-22.9Q8.65-22.9 7.83-21.9 7-20.9 7-19.6L7-19.6Q7-18 8.18-17.23 9.35-16.45 11.8-15.7L11.8-15.7Q14.2-14.95 15.68-14.2 17.15-13.45 18.23-11.88 19.3-10.3 19.3-7.65L19.3-7.65Q19.3-3.45 16.9-1.43 14.5 0.6 10.45 0.6L10.45 0.6Z" opacity="1" transform="matrix(1,0,0,1,0,0)" fill="#ffffff" class="wordmark-text-0" data-fill-palette-color="quaternary" id="text-0"></path></svg></g></svg></g></svg></g></svg></g><g></g></svg></g></svg></g></svg></g></svg></g><defs></defs></svg><rect width="333.90454557049503" height="333.90454557049503" fill="none" stroke="none" visibility="hidden"></rect></g></svg></g></svg>